<mxfile host="app.diagrams.net" modified="2021-05-23T09:40:04.507Z" agent="5.0 (Windows NT 10.0; Win64; x64) AppleWebKit/537.36 (KHTML, like Gecko) Chrome/90.0.4430.212 Safari/537.36" etag="zxfDwHi2eJPw0jX2YaCr" version="14.7.0" type="github">
  <diagram id="hWRiYZdYROX96dHhmvVG" name="Page-1">
    <mxGraphModel dx="981" dy="548" grid="1" gridSize="10" guides="1" tooltips="1" connect="1" arrows="1" fold="1" page="1" pageScale="1" pageWidth="827" pageHeight="1169" math="0" shadow="0">
      <root>
        <mxCell id="0" />
        <mxCell id="1" parent="0" />
        <mxCell id="y0btdh6a1R1oDhLPrUnS-26" value="" style="group" vertex="1" connectable="0" parent="1">
          <mxGeometry x="376" y="60" width="450.6" height="189.39999999999998" as="geometry" />
        </mxCell>
        <mxCell id="y0btdh6a1R1oDhLPrUnS-1" value="our user" style="shape=umlActor;verticalLabelPosition=bottom;verticalAlign=top;html=1;outlineConnect=0;" vertex="1" parent="y0btdh6a1R1oDhLPrUnS-26">
          <mxGeometry y="10" width="30" height="60" as="geometry" />
        </mxCell>
        <mxCell id="y0btdh6a1R1oDhLPrUnS-3" value="Share invite" style="ellipse;whiteSpace=wrap;html=1;" vertex="1" parent="y0btdh6a1R1oDhLPrUnS-26">
          <mxGeometry x="110" width="140" height="30" as="geometry" />
        </mxCell>
        <mxCell id="y0btdh6a1R1oDhLPrUnS-6" value="" style="endArrow=classic;html=1;exitX=1;exitY=0.3333333333333333;exitDx=0;exitDy=0;exitPerimeter=0;entryX=0.008;entryY=0.437;entryDx=0;entryDy=0;entryPerimeter=0;" edge="1" parent="y0btdh6a1R1oDhLPrUnS-26" source="y0btdh6a1R1oDhLPrUnS-1" target="y0btdh6a1R1oDhLPrUnS-3">
          <mxGeometry width="50" height="50" relative="1" as="geometry">
            <mxPoint x="270" y="160" as="sourcePoint" />
            <mxPoint x="320" y="110" as="targetPoint" />
          </mxGeometry>
        </mxCell>
        <mxCell id="y0btdh6a1R1oDhLPrUnS-7" value="his friend" style="shape=umlActor;verticalLabelPosition=bottom;verticalAlign=top;html=1;outlineConnect=0;" vertex="1" parent="y0btdh6a1R1oDhLPrUnS-26">
          <mxGeometry x="270" y="50" width="30" height="60" as="geometry" />
        </mxCell>
        <mxCell id="y0btdh6a1R1oDhLPrUnS-8" value="URL&amp;nbsp;&lt;br&gt;QR - CODE" style="rounded=1;whiteSpace=wrap;html=1;" vertex="1" parent="y0btdh6a1R1oDhLPrUnS-26">
          <mxGeometry x="120" y="30" width="120" height="40" as="geometry" />
        </mxCell>
        <mxCell id="y0btdh6a1R1oDhLPrUnS-9" value="" style="endArrow=classic;html=1;exitX=1;exitY=0.5;exitDx=0;exitDy=0;entryX=0;entryY=0.3333333333333333;entryDx=0;entryDy=0;entryPerimeter=0;" edge="1" parent="y0btdh6a1R1oDhLPrUnS-26" source="y0btdh6a1R1oDhLPrUnS-3" target="y0btdh6a1R1oDhLPrUnS-7">
          <mxGeometry width="50" height="50" relative="1" as="geometry">
            <mxPoint x="270" y="160" as="sourcePoint" />
            <mxPoint x="320" y="110" as="targetPoint" />
          </mxGeometry>
        </mxCell>
        <mxCell id="y0btdh6a1R1oDhLPrUnS-10" value="" style="dashed=0;outlineConnect=0;html=1;align=center;labelPosition=center;verticalLabelPosition=bottom;verticalAlign=top;shape=mxgraph.webicons.google_play;fillColor=#000000" vertex="1" parent="y0btdh6a1R1oDhLPrUnS-26">
          <mxGeometry x="320" y="150" width="130.6" height="39.4" as="geometry" />
        </mxCell>
        <mxCell id="y0btdh6a1R1oDhLPrUnS-11" value="" style="endArrow=classic;html=1;exitX=1;exitY=0.3333333333333333;exitDx=0;exitDy=0;exitPerimeter=0;" edge="1" parent="y0btdh6a1R1oDhLPrUnS-26" source="y0btdh6a1R1oDhLPrUnS-7" target="y0btdh6a1R1oDhLPrUnS-10">
          <mxGeometry width="50" height="50" relative="1" as="geometry">
            <mxPoint x="260" y="25" as="sourcePoint" />
            <mxPoint x="330" y="40" as="targetPoint" />
          </mxGeometry>
        </mxCell>
        <mxCell id="y0btdh6a1R1oDhLPrUnS-13" value="" style="shape=image;html=1;verticalAlign=top;verticalLabelPosition=bottom;labelBackgroundColor=#ffffff;imageAspect=0;aspect=fixed;image=https://cdn0.iconfinder.com/data/icons/education-340/100/Tilda_Icons_1ed_discount-128.png" vertex="1" parent="y0btdh6a1R1oDhLPrUnS-26">
          <mxGeometry x="110" y="154.7" width="30" height="30" as="geometry" />
        </mxCell>
        <mxCell id="y0btdh6a1R1oDhLPrUnS-16" value="" style="endArrow=classic;html=1;" edge="1" parent="y0btdh6a1R1oDhLPrUnS-26" source="y0btdh6a1R1oDhLPrUnS-10" target="y0btdh6a1R1oDhLPrUnS-13">
          <mxGeometry width="50" height="50" relative="1" as="geometry">
            <mxPoint x="270" y="160" as="sourcePoint" />
            <mxPoint x="320" y="110" as="targetPoint" />
          </mxGeometry>
        </mxCell>
        <mxCell id="y0btdh6a1R1oDhLPrUnS-31" value="" style="group" vertex="1" connectable="0" parent="y0btdh6a1R1oDhLPrUnS-26">
          <mxGeometry x="154" y="110" width="60" height="20" as="geometry" />
        </mxCell>
        <mxCell id="y0btdh6a1R1oDhLPrUnS-15" value="" style="endArrow=classic;html=1;" edge="1" parent="y0btdh6a1R1oDhLPrUnS-31" source="y0btdh6a1R1oDhLPrUnS-13" target="y0btdh6a1R1oDhLPrUnS-7">
          <mxGeometry width="50" height="50" relative="1" as="geometry">
            <mxPoint x="116" y="115" as="sourcePoint" />
            <mxPoint x="-114" y="-49.28571428571422" as="targetPoint" />
          </mxGeometry>
        </mxCell>
        <mxCell id="y0btdh6a1R1oDhLPrUnS-30" value="+100BC" style="text;html=1;align=center;verticalAlign=middle;resizable=0;points=[];autosize=1;strokeColor=none;" vertex="1" parent="y0btdh6a1R1oDhLPrUnS-31">
          <mxGeometry width="60" height="20" as="geometry" />
        </mxCell>
        <mxCell id="y0btdh6a1R1oDhLPrUnS-35" value="" style="group" vertex="1" connectable="0" parent="y0btdh6a1R1oDhLPrUnS-26">
          <mxGeometry x="50" y="90" width="60" height="20" as="geometry" />
        </mxCell>
        <mxCell id="y0btdh6a1R1oDhLPrUnS-14" value="" style="endArrow=classic;html=1;exitX=0;exitY=0.5;exitDx=0;exitDy=0;" edge="1" parent="y0btdh6a1R1oDhLPrUnS-35" source="y0btdh6a1R1oDhLPrUnS-13" target="y0btdh6a1R1oDhLPrUnS-1">
          <mxGeometry width="50" height="50" relative="1" as="geometry">
            <mxPoint x="220" y="70" as="sourcePoint" />
            <mxPoint x="270" y="20" as="targetPoint" />
          </mxGeometry>
        </mxCell>
        <mxCell id="y0btdh6a1R1oDhLPrUnS-32" value="" style="group" vertex="1" connectable="0" parent="y0btdh6a1R1oDhLPrUnS-35">
          <mxGeometry width="60" height="20" as="geometry" />
        </mxCell>
        <mxCell id="y0btdh6a1R1oDhLPrUnS-34" value="+100BC" style="text;html=1;align=center;verticalAlign=middle;resizable=0;points=[];autosize=1;strokeColor=none;" vertex="1" parent="y0btdh6a1R1oDhLPrUnS-32">
          <mxGeometry width="60" height="20" as="geometry" />
        </mxCell>
        <mxCell id="y0btdh6a1R1oDhLPrUnS-27" value="" style="group" vertex="1" connectable="0" parent="1">
          <mxGeometry x="376" y="310" width="320" height="80" as="geometry" />
        </mxCell>
        <mxCell id="y0btdh6a1R1oDhLPrUnS-17" value="our user" style="shape=umlActor;verticalLabelPosition=bottom;verticalAlign=top;html=1;outlineConnect=0;" vertex="1" parent="y0btdh6a1R1oDhLPrUnS-27">
          <mxGeometry y="20" width="30" height="60" as="geometry" />
        </mxCell>
        <mxCell id="y0btdh6a1R1oDhLPrUnS-18" value="use sale" style="ellipse;whiteSpace=wrap;html=1;" vertex="1" parent="y0btdh6a1R1oDhLPrUnS-27">
          <mxGeometry x="90" width="140" height="30" as="geometry" />
        </mxCell>
        <mxCell id="y0btdh6a1R1oDhLPrUnS-21" value="trainer or administration" style="shape=umlActor;verticalLabelPosition=bottom;verticalAlign=top;html=1;outlineConnect=0;" vertex="1" parent="y0btdh6a1R1oDhLPrUnS-27">
          <mxGeometry x="290" y="20" width="30" height="60" as="geometry" />
        </mxCell>
        <mxCell id="y0btdh6a1R1oDhLPrUnS-22" value="" style="shape=image;html=1;verticalAlign=top;verticalLabelPosition=bottom;labelBackgroundColor=#ffffff;imageAspect=0;aspect=fixed;image=https://cdn1.iconfinder.com/data/icons/100-basic-for-user-interface/32/68-qr_code-128.png" vertex="1" parent="y0btdh6a1R1oDhLPrUnS-27">
          <mxGeometry x="140" y="30" width="40" height="40" as="geometry" />
        </mxCell>
        <mxCell id="y0btdh6a1R1oDhLPrUnS-23" value="" style="endArrow=classic;html=1;exitX=1;exitY=0.3333333333333333;exitDx=0;exitDy=0;exitPerimeter=0;entryX=0.05;entryY=0.676;entryDx=0;entryDy=0;entryPerimeter=0;" edge="1" parent="y0btdh6a1R1oDhLPrUnS-27" source="y0btdh6a1R1oDhLPrUnS-17" target="y0btdh6a1R1oDhLPrUnS-18">
          <mxGeometry width="50" height="50" relative="1" as="geometry">
            <mxPoint x="290" y="20" as="sourcePoint" />
            <mxPoint x="340" y="-30" as="targetPoint" />
          </mxGeometry>
        </mxCell>
        <mxCell id="y0btdh6a1R1oDhLPrUnS-24" value="" style="endArrow=classic;html=1;exitX=1;exitY=0.5;exitDx=0;exitDy=0;" edge="1" parent="y0btdh6a1R1oDhLPrUnS-27" source="y0btdh6a1R1oDhLPrUnS-18" target="y0btdh6a1R1oDhLPrUnS-21">
          <mxGeometry width="50" height="50" relative="1" as="geometry">
            <mxPoint x="40" y="60" as="sourcePoint" />
            <mxPoint x="107.00000000000023" y="30.279999999999973" as="targetPoint" />
          </mxGeometry>
        </mxCell>
        <mxCell id="y0btdh6a1R1oDhLPrUnS-29" value="" style="group" vertex="1" connectable="0" parent="1">
          <mxGeometry x="190" y="40" width="128" height="128" as="geometry" />
        </mxCell>
        <mxCell id="y0btdh6a1R1oDhLPrUnS-25" value="BatutCoin" style="shape=image;html=1;verticalAlign=top;verticalLabelPosition=bottom;labelBackgroundColor=#ffffff;imageAspect=0;aspect=fixed;image=https://cdn0.iconfinder.com/data/icons/business-collection-2027/58/coin-3-128.png" vertex="1" parent="y0btdh6a1R1oDhLPrUnS-29">
          <mxGeometry width="128" height="128" as="geometry" />
        </mxCell>
        <mxCell id="y0btdh6a1R1oDhLPrUnS-28" value="1BC = 1R" style="text;html=1;align=center;verticalAlign=middle;resizable=0;points=[];autosize=1;strokeColor=none;" vertex="1" parent="y0btdh6a1R1oDhLPrUnS-29">
          <mxGeometry x="29" y="54" width="70" height="20" as="geometry" />
        </mxCell>
        <mxCell id="y0btdh6a1R1oDhLPrUnS-39" value="- BC&lt;br&gt;- R" style="text;html=1;align=center;verticalAlign=middle;resizable=0;points=[];autosize=1;strokeColor=none;" vertex="1" parent="1">
          <mxGeometry x="516" y="380" width="40" height="30" as="geometry" />
        </mxCell>
      </root>
    </mxGraphModel>
  </diagram>
</mxfile>
